<?xml version="1.0" encoding="UTF-8"?>
<svg width="96" height="96" viewBox="0 0 96 96" fill="none" xmlns="http://www.w3.org/2000/svg">
  <!-- Background -->
  <rect width="96" height="96" fill="#2A1810"/>
  
  <!-- Hair - Brown -->
  <path d="M28 24h40v20H28z" fill="#4A2B1A"/>
  <path d="M24 28h48v8H24z" fill="#3D2314"/>
  
  <!-- Face -->
  <path d="M32 32h32v32H32z" fill="#FFE0BD"/>
  
  <!-- Eyes -->
  <path d="M40 44h6v6h-6z" fill="#4A4A4A"/>
  <path d="M50 44h6v6h-6z" fill="#4A4A4A"/>
  <path d="M42 46h2v2h-2z" fill="#FFFFFF"/>
  <path d="M52 46h2v2h-2z" fill="#FFFFFF"/>
  
  <!-- Nose -->
  <path d="M46 50h4v4h-4z" fill="#FFD0A0"/>
  
  <!-- Mouth - Gentle Smile -->
  <path d="M42 56c0 2 6 4 12 0" stroke="#4A4A4A" stroke-width="2"/>
  
  <!-- Neck -->
  <path d="M40 64h16v8H40z" fill="#FFE0BD"/>
  
  <!-- Shirt Collar -->
  <path d="M36 72h24v8H36z" fill="#1E90FF"/>
</svg> 